<svg width="48" height="45" viewBox="0 0 48 45" fill="none" xmlns="http://www.w3.org/2000/svg">
<path opacity="0.3" d="M46.6142 0.743957C46.3544 2.54495 46.5483 4.25426 46.2945 6.01353C46.0153 7.94902 46.0428 10.5105 45.0103 12.2023C44.5443 12.966 44.5114 13.9223 43.9961 14.6537C43.3393 15.5859 42.3517 16.8682 41.9453 17.9297C41.4666 19.1804 39.7905 21.3997 38.5791 22.0984C37.7439 22.5801 37.4761 23.5254 36.5491 23.9583C35.7585 24.3275 34.2166 25.4785 33.6515 26.1501C33.3221 26.5416 31.6355 27.8113 31.1285 27.9509C30.032 28.2528 28.9826 29.1581 27.9582 29.6584C23.4072 31.881 18.2011 32.8225 13.4333 34.5987C11.3702 35.3673 9.13758 35.732 7.11168 36.4409C6.32368 36.7166 5.42673 36.6332 4.62994 36.8526C3.78008 37.0865 2.66303 36.738 1.8501 37.0409C1.66775 37.1088 0.872922 37.2006 0.728994 37.1798C0.607467 37.1623 1.11101 36.6437 1.16653 36.5214C1.54811 35.6807 2.27077 34.4897 2.46269 33.5574C2.65566 32.6201 3.20599 31.6807 3.51254 30.7744C3.90182 29.6234 4.0778 28.1809 4.75326 27.177C5.01494 26.7881 5.25695 26.2043 5.35089 25.7479C5.44864 25.2731 5.3742 26.2858 5.1806 26.5893C4.33828 27.9096 4.12519 29.9285 3.66217 31.4334C3.07206 33.3512 2.52783 35.7636 1.25131 37.3754C0.574904 38.2295 1.34303 38.5913 2.26786 38.7247C3.5006 38.9025 4.52379 40.0022 5.67438 40.2985C7.42537 40.7494 8.89517 42.8027 10.4847 43.5901" stroke="white" stroke-linecap="round"/>
</svg>
