<svg width="17" height="16" viewBox="0 0 17 16" fill="none" xmlns="http://www.w3.org/2000/svg">
<g clip-path="url(#clip0_29_1641)">
<path d="M11.7 4.0002C11.7 3.78802 11.7843 3.58454 11.9343 3.43451C12.0843 3.28448 12.2878 3.2002 12.5 3.2002C12.7122 3.2002 12.9157 3.28448 13.0657 3.43451C13.2157 3.58454 13.3 3.78802 13.3 4.0002C13.3 4.21237 13.2157 4.41585 13.0657 4.56588C12.9157 4.71591 12.7122 4.8002 12.5 4.8002C12.2878 4.8002 12.0843 4.71591 11.9343 4.56588C11.7843 4.41585 11.7 4.21237 11.7 4.0002Z" fill="white"/>
<path fill-rule="evenodd" clip-rule="evenodd" d="M8.5 4.2002C7.49217 4.2002 6.52563 4.60055 5.81299 5.31319C5.10035 6.02583 4.7 6.99237 4.7 8.0002C4.7 9.00802 5.10035 9.97456 5.81299 10.6872C6.52563 11.3998 7.49217 11.8002 8.5 11.8002C9.50782 11.8002 10.4744 11.3998 11.187 10.6872C11.8996 9.97456 12.3 9.00802 12.3 8.0002C12.3 6.99237 11.8996 6.02583 11.187 5.31319C10.4744 4.60055 9.50782 4.2002 8.5 4.2002ZM5.9 8.0002C5.9 7.31063 6.17393 6.64931 6.66152 6.16172C7.14911 5.67412 7.81043 5.4002 8.5 5.4002C9.18956 5.4002 9.85088 5.67412 10.3385 6.16172C10.8261 6.64931 11.1 7.31063 11.1 8.0002C11.1 8.68976 10.8261 9.35108 10.3385 9.83867C9.85088 10.3263 9.18956 10.6002 8.5 10.6002C7.81043 10.6002 7.14911 10.3263 6.66152 9.83867C6.17393 9.35108 5.9 8.68976 5.9 8.0002Z" fill="white"/>
<path fill-rule="evenodd" clip-rule="evenodd" d="M12.7064 0.666139C9.91071 0.356079 7.0893 0.356079 4.2936 0.666139C2.684 0.846139 1.384 2.11414 1.1952 3.73174C0.86409 6.56744 0.86409 9.43204 1.1952 12.2677C1.384 13.8853 2.6832 15.1533 4.2936 15.3333C7.08934 15.6427 9.91067 15.6427 12.7064 15.3333C14.316 15.1533 15.616 13.8853 15.8048 12.2677C16.1359 9.43204 16.1359 6.56744 15.8048 3.73174C15.616 2.11414 14.3168 0.846139 12.7064 0.666139ZM4.4264 1.85814C7.13384 1.55791 9.86617 1.55791 12.5736 1.85814C13.6376 1.97814 14.4896 2.81734 14.6136 3.87174C14.9345 6.61438 14.9345 9.38509 14.6136 12.1277C14.5495 12.6438 14.3132 13.1231 13.9431 13.4883C13.5729 13.8536 13.0905 14.0833 12.5736 14.1405C9.86617 14.4408 7.13384 14.4408 4.4264 14.1405C3.90956 14.0833 3.42709 13.8536 3.05693 13.4883C2.68677 13.1231 2.45054 12.6438 2.3864 12.1277C2.06549 9.38509 2.06549 6.61438 2.3864 3.87174C2.45054 3.35571 2.68677 2.87636 3.05693 2.51114C3.42709 2.14592 3.90956 1.91535 4.4264 1.85814Z" fill="white"/>
</g>
<defs>
<clipPath id="clip0_29_1641">
<rect width="16" height="16" fill="white" transform="translate(0.5)"/>
</clipPath>
</defs>
</svg>
