<svg width="60" height="60" viewBox="0 0 60 60" fill="none" xmlns="http://www.w3.org/2000/svg">
<g clip-path="url(#clip0_29_1626)">
<path d="M30 0C22.0453 0 14.4094 3.16266 8.78906 8.78672C3.16299 14.413 0.00160992 22.0434 0 30C0 37.9533 3.16406 45.5892 8.78906 51.2133C14.4094 56.8373 22.0453 60 30 60C37.9547 60 45.5906 56.8373 51.2109 51.2133C56.8359 45.5892 60 37.9533 60 30C60 22.0467 56.8359 14.4108 51.2109 8.78672C45.5906 3.16266 37.9547 0 30 0Z" fill="url(#paint0_linear_29_1626)"/>
<path d="M13.5797 29.6841C22.3265 25.8741 28.1578 23.3622 31.0734 22.1485C39.4078 18.683 41.1375 18.0811 42.2672 18.0607C42.5156 18.0567 43.0687 18.1181 43.4297 18.4099C43.7297 18.656 43.814 18.9888 43.8562 19.2225C43.8937 19.456 43.9453 19.988 43.9031 20.4033C43.4531 25.1471 41.4984 36.6586 40.5047 41.9719C40.0875 44.22 39.2578 44.9738 38.4562 45.0474C36.7125 45.2077 35.3906 43.8961 33.7031 42.7903C31.064 41.0592 29.5734 39.9821 27.0094 38.2931C24.0469 36.3413 25.9687 35.2683 27.6562 33.5152C28.0969 33.0563 35.775 26.0742 35.9203 25.441C35.939 25.3617 35.9578 25.0664 35.7797 24.9108C35.6062 24.7547 35.3484 24.8081 35.1609 24.8503C34.8937 24.9103 30.6797 27.6985 22.5047 33.2142C21.3094 34.0364 20.2265 34.4372 19.2515 34.4161C18.1828 34.3931 16.1203 33.8105 14.5875 33.3127C12.7125 32.7019 11.2172 32.3789 11.3484 31.3416C11.414 30.8016 12.1594 30.2489 13.5797 29.6841Z" fill="white"/>
</g>
<defs>
<linearGradient id="paint0_linear_29_1626" x1="3000" y1="0" x2="3000" y2="6000" gradientUnits="userSpaceOnUse">
<stop stop-color="#2AABEE"/>
<stop offset="1" stop-color="#229ED9"/>
</linearGradient>
<clipPath id="clip0_29_1626">
<rect width="60" height="60" fill="white"/>
</clipPath>
</defs>
</svg>
